<?xml version="1.0"?>
<svg width="24" height="24" xmlns="http://www.w3.org/2000/svg" xmlns:svg="http://www.w3.org/2000/svg">
 <g class="layer">
  <title>Layer 1</title>
  <path d="m14,5.6c0,-0.56 0,-0.84 0.11,-1.05c0.09,-0.19 0.25,-0.35 0.44,-0.44c0.21,-0.11 0.49,-0.11 1.05,-0.11l2.8,0c0.56,0 0.84,0 1.05,0.11c0.19,0.09 0.35,0.25 0.44,0.44c0.11,0.21 0.11,0.49 0.11,1.05l0,2.8c0,0.56 0,0.84 -0.11,1.05c-0.09,0.19 -0.25,0.35 -0.44,0.44c-0.21,0.11 -0.49,0.11 -1.05,0.11l-2.8,0c-0.56,0 -0.84,0 -1.05,-0.11c-0.19,-0.09 -0.35,-0.25 -0.44,-0.44c-0.11,-0.21 -0.11,-0.49 -0.11,-1.05l0,-2.8z" id="svg_1" stroke="#000000" stroke-linecap="round" stroke-linejoin="round" stroke-width="2"/>
  <path d="m4,5.6c0,-0.56 0,-0.84 0.11,-1.05c0.09,-0.19 0.25,-0.35 0.44,-0.44c0.21,-0.11 0.49,-0.11 1.05,-0.11l2.8,0c0.56,0 0.84,0 1.05,0.11c0.19,0.09 0.35,0.25 0.44,0.44c0.11,0.21 0.11,0.49 0.11,1.05l0,2.8c0,0.56 0,0.84 -0.11,1.05c-0.09,0.19 -0.25,0.35 -0.44,0.44c-0.21,0.11 -0.49,0.11 -1.05,0.11l-2.8,0c-0.56,0 -0.84,0 -1.05,-0.11c-0.19,-0.09 -0.35,-0.25 -0.44,-0.44c-0.11,-0.21 -0.11,-0.49 -0.11,-1.05l0,-2.8z" id="svg_2" stroke="#000000" stroke-linecap="round" stroke-linejoin="round" stroke-width="2"/>
  <path d="m4,15.6c0,-0.56 0,-0.84 0.11,-1.05c0.09,-0.19 0.25,-0.35 0.44,-0.44c0.21,-0.11 0.49,-0.11 1.05,-0.11l2.8,0c0.56,0 0.84,0 1.05,0.11c0.19,0.09 0.35,0.25 0.44,0.44c0.11,0.21 0.11,0.49 0.11,1.05l0,2.8c0,0.56 0,0.84 -0.11,1.05c-0.09,0.19 -0.25,0.35 -0.44,0.44c-0.21,0.11 -0.49,0.11 -1.05,0.11l-2.8,0c-0.56,0 -0.84,0 -1.05,-0.11c-0.19,-0.09 -0.35,-0.25 -0.44,-0.44c-0.11,-0.21 -0.11,-0.49 -0.11,-1.05l0,-2.8z" id="svg_3" stroke="#000000" stroke-linecap="round" stroke-linejoin="round" stroke-width="2"/>
  <path d="m14,15.6c0,-0.56 0,-0.84 0.11,-1.05c0.09,-0.19 0.25,-0.35 0.44,-0.44c0.21,-0.11 0.49,-0.11 1.05,-0.11l2.8,0c0.56,0 0.84,0 1.05,0.11c0.19,0.09 0.35,0.25 0.44,0.44c0.11,0.21 0.11,0.49 0.11,1.05l0,2.8c0,0.56 0,0.84 -0.11,1.05c-0.09,0.19 -0.25,0.35 -0.44,0.44c-0.21,0.11 -0.49,0.11 -1.05,0.11l-2.8,0c-0.56,0 -0.84,0 -1.05,-0.11c-0.19,-0.09 -0.35,-0.25 -0.44,-0.44c-0.11,-0.21 -0.11,-0.49 -0.11,-1.05l0,-2.8z" id="svg_4" stroke="#000000" stroke-linecap="round" stroke-linejoin="round" stroke-width="2"/>
 </g>
</svg>